<svg version="1.2" xmlns="http://www.w3.org/2000/svg" viewBox="0 0 23 19" width="25" height="21">
	<title>facebook</title>
	<style>
		.s0 { fill: #ffffff;stroke: #000000;stroke-width: .4 } 
	</style>
	<g id="SVGRepo_iconCarrier">
		<path id="Layer" class="s0" d="m19.9 9c0-1.5-0.4-3-1.3-4.3-0.8-1.2-2-2.2-3.4-2.9-1.3-0.6-2.9-0.8-4.4-0.6-1.5 0.3-2.9 0.9-4 1.9-1.2 1-2 2.3-2.5 3.7-0.4 1.5-0.4 3 0 4.5 0.4 1.4 1.2 2.7 2.4 3.7 1.1 1 2.5 1.7 4 1.9v-5.6h-2v-2.3h2v-1.8q0-0.6 0.2-1.2 0.2-0.6 0.6-1 0.4-0.5 1-0.7 0.6-0.2 1.2-0.2 0.9 0 1.8 0.2v2h-1q-0.3-0.1-0.5 0-0.3 0.1-0.4 0.3-0.2 0.2-0.3 0.4-0.1 0.3-0.1 0.5v1.5h2.2l-0.3 2.3h-1.9v5.6c1.9-0.3 3.6-1.3 4.8-2.7 1.3-1.5 1.9-3.3 1.9-5.2z"/>
	</g>
</svg>