<svg version="1.2" xmlns="http://www.w3.org/2000/svg" viewBox="0 0 28 28" width="25" height="25">
	<title>instagram</title>
	<style>
		.s0 { fill: #ffffff } 
	</style>
	<g id="SVGRepo_iconCarrier">
		<path id="Layer" fill-rule="evenodd" class="s0" d="m7.4 13.2c0.5-3.6 3.7-6.2 7.3-5.7 3.5 0.4 6 3.7 5.6 7.3-0.5 3.6-3.7 6.1-7.3 5.7-3.5-0.5-6-3.8-5.6-7.3zm5.9 5.1c2.4 0.3 4.5-1.4 4.8-3.8 0.3-2.4-1.3-4.5-3.7-4.8-2.4-0.3-4.5 1.3-4.8 3.7-0.3 2.4 1.3 4.6 3.7 4.9z"/>
		<path id="Layer" class="s0" d="m20.3 6.4c-0.6 0-1.1 0.4-1.1 1 0 0.6 0.5 1.1 1.1 1.1 0.6 0 1.1-0.5 1.1-1.1 0-0.6-0.5-1-1.1-1z"/>
		<path id="Layer" fill-rule="evenodd" class="s0" d="m5.5 2.7c1.4-0.7 3.2-0.7 6.8-0.7h3.1c3.6 0 5.4 0 6.8 0.7 1.2 0.6 2.2 1.6 2.8 2.9 0.7 1.4 0.7 3.2 0.7 6.9v3c0 3.7 0 5.5-0.7 6.9-0.6 1.2-1.6 2.2-2.8 2.8-1.4 0.8-3.2 0.8-6.8 0.8h-3.1c-3.6 0-5.4 0-6.8-0.8-1.2-0.6-2.2-1.6-2.8-2.8-0.7-1.4-0.7-3.2-0.7-6.9v-3c0-3.7 0-5.5 0.7-6.9 0.6-1.3 1.6-2.3 2.8-2.9zm9.9 1.5h-3.1c-1.8 0-3.1 0-4 0.1-1 0-1.5 0.2-1.8 0.4-0.8 0.4-1.5 1-1.9 1.9-0.1 0.3-0.3 0.8-0.4 1.7 0 1 0 2.3 0 4.2v3c0 1.9 0 3.1 0 4.1 0.1 1 0.3 1.5 0.4 1.8 0.4 0.8 1.1 1.5 1.9 1.9 0.3 0.2 0.8 0.3 1.8 0.4 0.9 0.1 2.2 0.1 4 0.1h3.1c1.8 0 3.1 0 4-0.1 1-0.1 1.5-0.2 1.8-0.4 0.8-0.4 1.5-1.1 1.9-1.9 0.2-0.3 0.3-0.8 0.4-1.8 0.1-1 0.1-2.2 0.1-4.1v-3c0-1.9 0-3.2-0.1-4.2-0.1-0.9-0.2-1.4-0.4-1.7-0.4-0.9-1.1-1.5-1.9-1.9-0.3-0.2-0.8-0.4-1.8-0.4-0.9-0.1-2.2-0.1-4-0.1z"/>
	</g>
</svg>