<svg version="1.2" xmlns="http://www.w3.org/2000/svg" viewBox="0 0 100 97" width="35" height="34">
	<title>noun-circuit-svg</title>
	<style>
		.s0 { fill: #ffffff } 
	</style>
	<g id="Layer">
		<path id="Layer" class="s0" d="m88.5 45.2c-1 0-1.9 0.4-2.7 1-0.8 0.7-1.3 1.8-1.3 3 0 1.4 0.7 2.6 1.7 3.3 0.3 0.2 0.7 0.4 1.1 0.5-0.6 8.6-4 17-10.1 23.6-1.9 2.1-4 4-6.4 5.7-0.8 0.6-1.6 1.1-2.5 1.6-13.2 7.8-29.4 7-41.6-1.2-3.9-2.6-7.4-5.9-10.2-10-10.1-14.4-9-33.3 1.3-46.4 2.3-3 5.1-5.6 8.3-7.9 9.9-6.9 22-8.6 32.8-5.6 0 0.7 0.2 1.4 0.5 2 0.7 1.2 2 2 3.5 2 0.4 0 0.8-0.1 1.1-0.2 1.7-0.5 2.9-2 2.9-3.8 0-2.2-1.8-4-4-4-1.5 0-2.8 0.8-3.5 2-11.3-3.2-24-1.4-34.4 5.9-18.5 13-23 38.6-10.1 57.1 13 18.5 38.6 23 57.1 10.1 10.6-7.4 16.5-18.9 17.4-30.8 1.8-0.4 3.1-2 3.1-3.9 0-2.2-1.8-4-4-4z"/>
		<path id="Layer" class="s0" d="m54.2 27.9c-1.5 0-2.8 0.9-3.5 2.1-5-0.7-10.3 0.5-14.8 3.6-1.9 1.3-3.5 2.9-4.8 4.7-5.2 7.1-5.7 17-0.3 24.5 6.6 9.5 19.8 11.8 29.2 5.2q2.2-1.5 3.9-3.6c2.2-2.5 3.7-5.5 4.4-8.7 2.1-0.1 3.8-1.8 3.8-4 0-2.2-1.8-4-4-4-0.1 0-0.3 0-0.4 0-0.7 0.1-1.4 0.3-1.9 0.7-1 0.7-1.7 1.9-1.7 3.3 0 1.4 0.7 2.5 1.7 3.3 0.2 0.1 0.3 0.2 0.5 0.3-0.7 2.8-2 5.5-4 7.8-1 1.2-2.2 2.3-3.5 3.2-0.2 0.1-0.3 0.2-0.5 0.3-6.9 4.5-15.7 4-22-0.8-1.5-1.2-2.9-2.5-4-4.2-4.8-6.8-4.4-15.8 0.3-22.2 1.2-1.6 2.6-3.1 4.4-4.3 4-2.8 8.6-3.8 13.1-3.3 0 0.4 0.1 0.8 0.2 1.1 0.5 1.6 2 2.8 3.8 2.8 0.8 0 1.6-0.3 2.3-0.7 0.6-0.4 1-0.9 1.3-1.5 0.3-0.5 0.4-1.1 0.4-1.8 0.1-2-1.7-3.8-3.9-3.8z"/>
		<path id="Layer" class="s0" d="m44.5 55.2c-0.5-1.4-1.8-2.4-3.2-2.6-0.6-0.1-1.3 0-1.9 0.2 0 0 0 0-0.1 0-2 0.8-3.1 3-2.3 5.1 0.7 2 3 3.1 5 2.4 1.1 1 2.4 1.9 3.9 2.4 3.4 1.2 7.1 0.7 9.9-1.2 1.9-1.3 3.4-3.1 4.2-5.3 2.1-5.7-0.9-12-6.6-14.1q-2.1-0.8-4.2-0.6c-1-1.5-2.9-2.2-4.7-1.6-2.1 0.8-3.1 3.1-2.4 5.1 0.8 2.1 3.1 3.1 5.1 2.4 1.7-0.6 2.7-2.3 2.6-4 1 0 1.9 0.2 2.9 0.5 0.4 0.2 0.8 0.3 1.2 0.5 3.9 2.1 5.7 6.7 4.2 11-0.7 1.8-1.9 3.3-3.3 4.3-2.3 1.6-5.4 2.1-8.2 1.1-1.1-0.4-2-1-2.9-1.7 0.2-0.2 0.3-0.4 0.4-0.6 0.6-0.9 0.8-2.1 0.4-3.3z"/>
		<path id="Layer" class="s0" d="m45.4 19.8c-0.5-1.6-2-2.7-3.8-2.7-2.2 0-4 1.8-4 4 0 0.4 0.1 0.7 0.2 1.1 0.2 0.7 0.5 1.3 1 1.8 0.7 0.7 1.7 1.2 2.8 1.2 1.6 0 3-1 3.6-2.3 0.1-0.3 0.3-0.6 0.3-1 8-0.4 16 2.4 22.1 8.4 5.4 5.4 8.2 12.3 8.5 19.4 0.3 7.8-2.5 15.7-8.5 21.7q-2.1 2.1-4.5 3.6c-9.7 6.4-22.4 6.4-32 0-1.6-1.1-3.1-2.3-4.5-3.7-5.3-5.3-8.1-12.1-8.4-19.1-0.1-1 0-2.1 0-3.1h0.1c1.8-0.4 3.1-2 3.1-3.9 0-1.3-0.6-2.4-1.6-3.2-0.5-0.4-1.2-0.7-1.8-0.8-0.2 0-0.4-0.1-0.6-0.1-2.2 0-4 1.8-4 4 0 1.8 1.2 3.3 2.8 3.8-0.1 0.9-0.1 1.8 0 2.8v0.1c0 0.1 0 0.3 0 0.4 0.4 7.4 3.4 14.8 9 20.4 12.1 12.1 31.8 12.1 43.8 0 6.4-6.4 9.4-14.8 9-23.2-0.3-7.5-3.3-14.9-9-20.6-6.4-6.5-15.1-9.4-23.6-9z"/>
	</g>
</svg>